<!-- GokhBI GIS Platform App Icon -->
<svg width="512" height="512" viewBox="0 0 512 512" xmlns="http://www.w3.org/2000/svg">
  <!-- Background with gradient -->
  <defs>
    <linearGradient id="bgGradient" x1="0%" y1="0%" x2="100%" y2="100%">
      <stop offset="0%" style="stop-color:#2563eb;stop-opacity:1" />
      <stop offset="100%" style="stop-color:#059669;stop-opacity:1" />
    </linearGradient>
    <linearGradient id="iconGradient" x1="0%" y1="0%" x2="100%" y2="100%">
      <stop offset="0%" style="stop-color:#ffffff;stop-opacity:1" />
      <stop offset="100%" style="stop-color:#f0f9ff;stop-opacity:1" />
    </linearGradient>
    <filter id="shadow" x="-50%" y="-50%" width="200%" height="200%">
      <feDropShadow dx="0" dy="4" stdDeviation="8" flood-color="#000000" flood-opacity="0.25"/>
    </filter>
  </defs>
  
  <!-- Background circle -->
  <circle cx="256" cy="256" r="240" fill="url(#bgGradient)" filter="url(#shadow)"/>
  
  <!-- City buildings silhouette -->
  <g fill="url(#iconGradient)" opacity="0.9">
    <!-- Building 1 -->
    <rect x="120" y="200" width="40" height="120" rx="4"/>
    <rect x="125" y="210" width="8" height="8" fill="#2563eb" opacity="0.7"/>
    <rect x="140" y="210" width="8" height="8" fill="#2563eb" opacity="0.7"/>
    <rect x="125" y="230" width="8" height="8" fill="#2563eb" opacity="0.7"/>
    <rect x="140" y="230" width="8" height="8" fill="#2563eb" opacity="0.7"/>
    
    <!-- Building 2 (tallest) -->
    <rect x="170" y="150" width="50" height="170" rx="6"/>
    <rect x="180" y="170" width="10" height="10" fill="#2563eb" opacity="0.7"/>
    <rect x="200" y="170" width="10" height="10" fill="#2563eb" opacity="0.7"/>
    <rect x="180" y="200" width="10" height="10" fill="#2563eb" opacity="0.7"/>
    <rect x="200" y="200" width="10" height="10" fill="#2563eb" opacity="0.7"/>
    <rect x="180" y="230" width="10" height="10" fill="#2563eb" opacity="0.7"/>
    <rect x="200" y="230" width="10" height="10" fill="#2563eb" opacity="0.7"/>
    
    <!-- Building 3 -->
    <rect x="230" y="180" width="45" height="140" rx="5"/>
    <rect x="240" y="200" width="9" height="9" fill="#2563eb" opacity="0.7"/>
    <rect x="255" y="200" width="9" height="9" fill="#2563eb" opacity="0.7"/>
    <rect x="240" y="220" width="9" height="9" fill="#2563eb" opacity="0.7"/>
    <rect x="255" y="220" width="9" height="9" fill="#2563eb" opacity="0.7"/>
    
    <!-- Building 4 -->
    <rect x="285" y="220" width="35" height="100" rx="4"/>
    <rect x="295" y="240" width="7" height="7" fill="#2563eb" opacity="0.7"/>
    <rect x="307" y="240" width="7" height="7" fill="#2563eb" opacity="0.7"/>
    <rect x="295" y="260" width="7" height="7" fill="#2563eb" opacity="0.7"/>
    <rect x="307" y="260" width="7" height="7" fill="#2563eb" opacity="0.7"/>
    
    <!-- Building 5 -->
    <rect x="330" y="190" width="42" height="130" rx="5"/>
    <rect x="340" y="210" width="8" height="8" fill="#2563eb" opacity="0.7"/>
    <rect x="355" y="210" width="8" height="8" fill="#2563eb" opacity="0.7"/>
    <rect x="340" y="230" width="8" height="8" fill="#2563eb" opacity="0.7"/>
    <rect x="355" y="230" width="8" height="8" fill="#2563eb" opacity="0.7"/>
  </g>
  
  <!-- GIS/Map overlay -->
  <g stroke="url(#iconGradient)" stroke-width="3" fill="none" opacity="0.8">
    <!-- Map grid lines -->
    <line x1="100" y1="350" x2="412" y2="350"/>
    <line x1="100" y1="370" x2="412" y2="370"/>
    <line x1="140" y1="330" x2="140" y2="390"/>
    <line x1="200" y1="330" x2="200" y2="390"/>
    <line x1="260" y1="330" x2="260" y2="390"/>
    <line x1="320" y1="330" x2="320" y2="390"/>
    <line x1="380" y1="330" x2="380" y2="390"/>
  </g>
  
  <!-- Location pin -->
  <g fill="url(#iconGradient)">
    <path d="M256 340 C246 340 238 332 238 322 C238 312 246 304 256 304 C266 304 274 312 274 322 C274 332 266 340 256 340 Z"/>
    <circle cx="256" cy="322" r="6" fill="#2563eb"/>
  </g>
  
  <!-- Smart connectivity dots -->
  <g fill="url(#iconGradient)" opacity="0.6">
    <circle cx="140" cy="180" r="4"/>
    <circle cx="190" cy="120" r="4"/>
    <circle cx="250" cy="160" r="4"/>
    <circle cx="300" cy="200" r="4"/>
    <circle cx="350" cy="170" r="4"/>
  </g>
  
  <!-- Connectivity lines -->
  <g stroke="url(#iconGradient)" stroke-width="2" opacity="0.4">
    <line x1="140" y1="180" x2="190" y2="120"/>
    <line x1="190" y1="120" x2="250" y2="160"/>
    <line x1="250" y1="160" x2="300" y2="200"/>
    <line x1="300" y1="200" x2="350" y2="170"/>
  </g>
</svg>
